# xmcd
#
# Track frame offsets: 
#        150
#        10080
#        19060
#        30605
#        43090
#        55952
#        66945
#        79295
#        90335
#        102354
#        115082
#        127730
#        138677
#        151267
#        162482
#
# Disc length: 2362 seconds
#
# Revision: 1
# Processed by: cddbd v1.5.2PL0 Copyright (c) Steve Scherf et al.
# Submitted via: ExactAudioCopy v0.95b4
#
DISCID=bd09380f
DTITLE=Orbison, Roy - The Ultimate Collection [CD1]
DYEAR=1996
DGENRE=Rock
TTITLE0=Ooby Doodby
TTITLE1=Claudette
TTITLE2=Dream Baby
TTITLE3=Crying
TTITLE4=Blue Angel
TTITLE5=Working For The Man
TTITLE6=Candy Man
TTITLE7=OnlyThe Lonely
TTITLE8=Leah
TTITLE9=In Dreams
TTITLE10=It's Over
TTITLE11=Mean Woman Blues
TTITLE12=Pretty Paper
TTITLE13=Blue Bayou
TTITLE14=Crawling Back
EXTD=CDDB Info
EXTT0=CDDB Track Info
EXTT1=CDDB Track Info
EXTT2=CDDB Track Info
EXTT3=CDDB Track Info
EXTT4=CDDB Track Info
EXTT5=CDDB Track Info
EXTT6=CDDB Track Info
EXTT7=CDDB Track Info
EXTT8=CDDB Track Info
EXTT9=CDDB Track Info
EXTT10=CDDB Track Info
EXTT11=CDDB Track Info
EXTT12=CDDB Track Info
EXTT13=CDDB Track Info
EXTT14=CDDB Track Info
PLAYORDER=
